<svg data-v-423bf9ae="" xmlns="http://www.w3.org/2000/svg" viewBox="0 0 277 90" class="iconLeft"><!----><!----><!----><g data-v-423bf9ae="" id="0a11c174-a27b-4f6f-aa35-c99667aa84ec" fill="black" transform="matrix(5.825242610575063,0,0,5.825242610575063,73.89887985757083,-2.184464310035594)"><path d="M8.30 5.94L8.30 5.94L8.30 5.94Q8.30 6.53 8.08 7.07L8.08 7.07L8.08 7.07Q7.85 7.61 7.48 8.08L7.48 8.08L7.48 8.08Q7.10 8.55 6.60 8.93L6.60 8.93L6.60 8.93Q6.10 9.32 5.54 9.59L5.54 9.59L5.54 9.59Q4.98 9.86 4.40 10.01L4.40 10.01L4.40 10.01Q3.81 10.17 3.27 10.17L3.27 10.17L3.27 10.17Q3.22 10.17 3.16 10.17L3.16 10.17L3.16 10.17Q3.10 10.17 3.05 10.15L3.05 10.15L3.12 9.78L3.12 9.78Q3.57 9.70 4.02 9.55L4.02 9.55L4.02 9.55Q4.48 9.39 4.89 9.16L4.89 9.16L4.89 9.16Q5.31 8.93 5.67 8.63L5.67 8.63L5.67 8.63Q6.04 8.33 6.30 7.95L6.30 7.95L6.30 7.95Q6.57 7.58 6.72 7.14L6.72 7.14L6.72 7.14Q6.88 6.70 6.88 6.19L6.88 6.19L6.88 6.19Q6.88 5.71 6.72 5.30L6.72 5.30L6.72 5.30Q6.56 4.89 6.28 4.59L6.28 4.59L6.28 4.59Q6.00 4.29 5.60 4.12L5.60 4.12L5.60 4.12Q5.20 3.95 4.72 3.95L4.72 3.95L4.72 3.95Q4.21 3.95 3.68 4.07L3.68 4.07L3.68 4.07Q3.15 4.18 2.63 4.40L2.63 4.40L2.63 4.40Q2.11 4.61 1.63 4.91L1.63 4.91L1.63 4.91Q1.15 5.22 0.75 5.58L0.75 5.58L0.53 5.35L0.53 5.35Q1.00 4.89 1.60 4.48L1.60 4.48L1.60 4.48Q2.19 4.07 2.85 3.77L2.85 3.77L2.85 3.77Q3.51 3.47 4.18 3.29L4.18 3.29L4.18 3.29Q4.85 3.11 5.48 3.11L5.48 3.11L5.48 3.11Q6.07 3.11 6.59 3.32L6.59 3.32L6.59 3.32Q7.10 3.53 7.48 3.90L7.48 3.90L7.48 3.90Q7.86 4.28 8.08 4.80L8.08 4.80L8.08 4.80Q8.30 5.32 8.30 5.94ZM2.74 5.09L2.74 12.73L1.33 13.25L1.33 5.58L2.74 5.09ZM10.21 13.19L10.21 13.19L10.21 13.19Q9.70 13.19 9.26 13.01L9.26 13.01L9.26 13.01Q8.82 12.83 8.49 12.51L8.49 12.51L8.49 12.51Q8.17 12.19 7.98 11.75L7.98 11.75L7.98 11.75Q7.79 11.32 7.79 10.81L7.79 10.81L7.79 10.81Q7.79 10.23 7.98 9.72L7.98 9.72L7.98 9.72Q8.18 9.21 8.51 8.80L8.51 8.80L8.51 8.80Q8.85 8.39 9.31 8.09L9.31 8.09L9.31 8.09Q9.78 7.79 10.32 7.62L10.32 7.62L10.51 7.85L10.51 7.85Q10.21 8.08 9.94 8.37L9.94 8.37L9.94 8.37Q9.67 8.66 9.47 9.00L9.47 9.00L9.47 9.00Q9.28 9.34 9.16 9.71L9.16 9.71L9.16 9.71Q9.04 10.08 9.04 10.47L9.04 10.47L9.04 10.47Q9.04 10.80 9.14 11.16L9.14 11.16L9.14 11.16Q9.24 11.53 9.43 11.83L9.43 11.83L9.43 11.83Q9.62 12.13 9.91 12.32L9.91 12.32L9.91 12.32Q10.20 12.52 10.58 12.52L10.58 12.52L10.58 12.52Q10.92 12.52 11.17 12.39L11.17 12.39L11.17 12.39Q11.42 12.27 11.59 12.06L11.59 12.06L11.59 12.06Q11.75 11.85 11.83 11.56L11.83 11.56L11.83 11.56Q11.92 11.28 11.92 10.96L11.92 10.96L11.92 10.96Q11.92 10.60 11.77 10.21L11.77 10.21L11.77 10.21Q11.63 9.82 11.38 9.50L11.38 9.50L11.38 9.50Q11.13 9.17 10.79 8.95L10.79 8.95L10.79 8.95Q10.46 8.73 10.08 8.70L10.08 8.70L10.08 8.70Q10.32 8.42 10.60 8.19L10.60 8.19L10.60 8.19Q10.89 7.96 11.18 7.75L11.18 7.75L11.18 7.75Q11.58 7.88 11.88 8.13L11.88 8.13L11.88 8.13Q12.19 8.38 12.40 8.71L12.40 8.71L12.40 8.71Q12.61 9.04 12.71 9.42L12.71 9.42L12.71 9.42Q12.82 9.81 12.82 10.21L12.82 10.21L12.82 10.21Q12.82 10.75 12.64 11.28L12.64 11.28L12.64 11.28Q12.45 11.81 12.10 12.24L12.10 12.24L12.10 12.24Q11.76 12.67 11.28 12.93L11.28 12.93L11.28 12.93Q10.79 13.19 10.21 13.19ZM16.99 11.15L16.99 11.15L16.99 11.15Q16.99 11.57 16.84 11.94L16.84 11.94L16.84 11.94Q16.68 12.31 16.41 12.58L16.41 12.58L16.41 12.58Q16.14 12.86 15.77 13.02L15.77 13.02L15.77 13.02Q15.39 13.17 14.96 13.17L14.96 13.17L14.96 13.17Q14.78 13.17 14.56 13.14L14.56 13.14L14.56 13.14Q14.35 13.10 14.14 13.04L14.14 13.04L14.14 13.04Q13.92 12.97 13.74 12.87L13.74 12.87L13.74 12.87Q13.55 12.76 13.43 12.62L13.43 12.62L14.23 11.57L14.23 11.57Q14.31 11.70 14.43 11.85L14.43 11.85L14.43 11.85Q14.55 12.00 14.70 12.13L14.70 12.13L14.70 12.13Q14.85 12.26 15.02 12.35L15.02 12.35L15.02 12.35Q15.18 12.43 15.35 12.43L15.35 12.43L15.35 12.43Q15.55 12.43 15.73 12.37L15.73 12.37L15.73 12.37Q15.90 12.30 16.03 12.17L16.03 12.17L16.03 12.17Q16.16 12.04 16.24 11.87L16.24 11.87L16.24 11.87Q16.31 11.70 16.31 11.50L16.31 11.50L16.31 11.50Q16.31 11.22 16.12 11.00L16.12 11.00L16.12 11.00Q15.93 10.77 15.68 10.55L15.68 10.55L15.68 10.55Q15.42 10.34 15.15 10.11L15.15 10.11L15.15 10.11Q14.87 9.88 14.70 9.60L14.70 9.60L13.99 10.64L13.72 10.45L14.54 9.31L14.54 9.31Q14.44 9.11 14.39 8.89L14.39 8.89L14.39 8.89Q14.33 8.67 14.33 8.46L14.33 8.46L14.33 8.46Q14.33 8.27 14.40 8.07L14.40 8.07L14.40 8.07Q14.46 7.86 14.57 7.69L14.57 7.69L14.57 7.69Q14.69 7.52 14.86 7.41L14.86 7.41L14.86 7.41Q15.03 7.29 15.24 7.29L15.24 7.29L15.24 7.29Q15.46 7.29 15.60 7.42L15.60 7.42L15.60 7.42Q15.75 7.55 15.75 7.79L15.75 7.79L15.75 7.79Q15.75 7.91 15.71 8.03L15.71 8.03L15.71 8.03Q15.67 8.16 15.61 8.28L15.61 8.28L15.61 8.28Q15.54 8.40 15.47 8.51L15.47 8.51L15.47 8.51Q15.39 8.63 15.33 8.72L15.33 8.72L15.33 8.72Q15.49 8.96 15.68 9.13L15.68 9.13L15.68 9.13Q15.87 9.30 16.06 9.45L16.06 9.45L16.06 9.45Q16.24 9.60 16.41 9.75L16.41 9.75L16.41 9.75Q16.58 9.90 16.71 10.09L16.71 10.09L16.71 10.09Q16.84 10.28 16.92 10.53L16.92 10.53L16.92 10.53Q16.99 10.79 16.99 11.15ZM15.44 7.91L15.44 7.91L15.44 7.91Q15.44 7.81 15.38 7.77L15.38 7.77L15.38 7.77Q15.31 7.72 15.23 7.72L15.23 7.72L15.23 7.72Q15.11 7.72 15.07 7.80L15.07 7.80L15.07 7.80Q15.02 7.88 15.02 7.97L15.02 7.97L15.02 7.97Q15.02 8.11 15.06 8.24L15.06 8.24L15.06 8.24Q15.11 8.37 15.18 8.48L15.18 8.48L15.18 8.48Q15.20 8.44 15.25 8.36L15.25 8.36L15.25 8.36Q15.29 8.29 15.34 8.20L15.34 8.20L15.34 8.20Q15.38 8.11 15.41 8.04L15.41 8.04L15.41 8.04Q15.44 7.96 15.44 7.91ZM20.32 12.03L20.51 12.24L20.51 12.24Q20.35 12.57 20.15 12.75L20.15 12.75L20.15 12.75Q19.94 12.93 19.74 13.01L19.74 13.01L19.74 13.01Q19.52 13.10 19.28 13.12L19.28 13.12L19.28 13.12Q18.97 13.12 18.77 13.02L18.77 13.02L18.77 13.02Q18.58 12.93 18.47 12.77L18.47 12.77L18.47 12.77Q18.35 12.61 18.31 12.41L18.31 12.41L18.31 12.41Q18.27 12.22 18.27 12.01L18.27 12.01L18.27 8.43L17.54 8.43L17.83 7.75L18.27 7.75L18.27 5.33L19.52 4.89L19.52 7.75L20.82 7.75L20.54 8.43L19.52 8.43L19.52 12.04L19.52 12.04Q19.52 12.21 19.59 12.30L19.59 12.30L19.59 12.30Q19.67 12.40 19.78 12.40L19.78 12.40L19.78 12.40Q19.90 12.41 20.04 12.32L20.04 12.32L20.04 12.32Q20.19 12.23 20.32 12.03L20.32 12.03ZM22.20 7.32L26.87 7.32L26.45 8.43L21.77 8.43L22.20 7.32ZM30.15 2.95L30.15 12.74L28.74 13.25L28.74 3.46L30.15 2.95ZM34.23 12.03L34.41 12.24L34.41 12.24Q34.25 12.57 34.05 12.75L34.05 12.75L34.05 12.75Q33.84 12.93 33.65 13.01L33.65 13.01L33.65 13.01Q33.42 13.10 33.18 13.12L33.18 13.12L33.18 13.12Q32.87 13.12 32.68 13.02L32.68 13.02L32.68 13.02Q32.48 12.93 32.37 12.77L32.37 12.77L32.37 12.77Q32.26 12.61 32.21 12.41L32.21 12.41L32.21 12.41Q32.17 12.22 32.17 12.01L32.17 12.01L32.17 8.43L31.45 8.43L31.74 7.75L32.17 7.75L32.17 5.33L33.42 4.89L33.42 7.75L34.72 7.75L34.44 8.43L33.42 8.43L33.42 12.04L33.42 12.04Q33.42 12.21 33.50 12.30L33.50 12.30L33.50 12.30Q33.57 12.40 33.69 12.40L33.69 12.40L33.69 12.40Q33.80 12.41 33.95 12.32L33.95 12.32L33.95 12.32Q34.09 12.23 34.23 12.03L34.23 12.03Z"></path></g><!----><g data-v-423bf9ae="" id="656f7a2d-4818-436a-8149-11c934c7da9d" transform="matrix(1.4994804275302862,0,0,1.4994804275302862,-18.986373854477762,-1.9885769642316404)" stroke="none" fill="black"><path d="M49 16h-6.125l-1.053-1.579 2.249-2.249 1.414 1.414a1 1 0 0 0 1.414 0l2.829-2.828a1 1 0 0 0 0-1.414l-7.071-7.072a1 1 0 0 0-1.414 0L38.414 5.1a1 1 0 0 0 0 1.414l1.415 1.414-2.249 2.25L34.019 7.8a1 1 0 0 0-1.262.125l-2.828 2.829a1 1 0 0 0 0 1.414L33.757 16H15a2 2 0 0 0-2 2v4.032h2V18h17.587l-4.779 4.778 1.414 1.414L35.415 18h.342l4.072 4.071a1 1 0 0 0 1.414 0l2.828-2.829A1 1 0 0 0 44.2 18H49v31H39a1 1 0 0 0-1 1v10H15V27.9h-2V60a2 2 0 0 0 2 2h24a1.005 1.005 0 0 0 .707-.293l11-11a.984.984 0 0 0 .2-.293c.014-.031.022-.062.033-.094a.945.945 0 0 0 .051-.257c0-.022.013-.041.013-.063V18A2 2 0 0 0 49 16zm-8.464 3.95l-8.486-8.485 1.542-1.542 3.56 2.374a1 1 0 0 0 1.262-.125l3.536-3.536a1 1 0 0 0 0-1.414l-1.414-1.414 1.414-1.414 5.657 5.657-1.415 1.414-1.414-1.414a1 1 0 0 0-1.414 0l-3.535 3.535a1 1 0 0 0-.125 1.262l2.373 3.56zM40 58.586V51h7.586z"></path><path d="M13 24.032h2v1.871h-2zM17 28h16v2H17zM31 40h16v2H31zM35 28h12v2H35zM17 40h12v2H17zM17 32h30v2H17zM17 36h30v2H17zM17 44h30v2H17z"></path></g><!----></svg>